<?xml version="1.0" encoding="UTF-8" standalone="no"?>
<svg width="129px" height="48px" viewBox="0 0 129 48" version="1.1" xmlns="http://www.w3.org/2000/svg" xmlns:xlink="http://www.w3.org/1999/xlink" xmlns:sketch="http://www.bohemiancoding.com/sketch/ns">
    <!-- Generator: Sketch 3.4.4 (17249) - http://www.bohemiancoding.com/sketch -->
    <title>uol</title>
    <desc>Created with Sketch.</desc>
    <defs></defs>
    <g id="landing" stroke="none" stroke-width="1" fill="none" fill-rule="evenodd" sketch:type="MSPage">
        <g id="landing_page" sketch:type="MSArtboardGroup" transform="translate(-734.000000, -2661.000000)">
            <g id="portfolio" sketch:type="MSLayerGroup" transform="translate(-1.000000, 1536.000000)">
                <g id="brands" transform="translate(1.000000, 969.000000)" sketch:type="MSShapeGroup">
                    <g id="brand-logos" transform="translate(70.000000, 152.392638)">
                        <g id="uol" transform="translate(664.000000, 4.313650)">
                            <g id="svg2644">
                                <path d="M1.42158686,15.1518493 C0.526138451,17.7580463 0.0519342122,20.4372492 0.0519342122,23.2938537 C0.0519342122,26.5152036 0.675272992,29.5054628 1.75076,32.3475797 C2.81303905,35.1578808 4.27271099,37.5746034 6.19337922,39.7017169 C8.05903564,41.7634945 10.2539934,43.4068374 12.7759444,44.6225135 C15.3000754,45.8381896 18.0437406,46.5041909 20.8970447,46.5041909 C23.8053606,46.5041909 26.5006821,45.8575063 29.0709767,44.6225135 C31.548944,43.4312674 33.7592897,41.7950262 35.653542,39.7017169 C37.5454861,37.6037205 38.985282,35.1360074 40.0432011,32.3475797 C41.125228,29.4835894 41.7421551,26.5152036 41.7421551,23.2938537 C41.7421551,20.4372492 41.2657709,17.7580463 40.3723743,15.1518493 C39.5097534,12.655019 38.3554033,10.3989378 36.8035321,8.34468813 C35.2824368,6.33162853 33.5044914,4.65661181 31.4852123,3.36565726 C28.3179948,1.3405247 25.0651178,0.141892792 21.2811014,0.141892792 L20.732394,0.141892792 C17.0009529,0.141892792 13.5879134,1.3283097 10.3636323,3.36565726 C8.33563341,4.64439681 6.52255236,6.34128689 4.9861973,8.34468813 C3.44971402,10.3503619 2.28202776,12.6551611 1.42158686,15.1518493 Z" id="path2594" fill="#CAC4C4"></path>
                                <path d="M91.2791867,8.58770972 C89.2488796,8.58770972 87.3832232,8.95231312 85.6273339,9.74245287 C83.8714446,10.5325926 82.3349613,11.6266869 81.0223721,13.0853846 C79.7054231,14.5440822 78.6607119,16.1851526 78.0022374,18.0692446 C77.2910593,19.951064 76.9618861,22.0173867 76.9618861,24.2662241 C76.9618861,26.3936218 77.2910593,28.4599444 78.0022374,30.3417639 C78.6607119,32.1650649 79.7054231,33.8667842 81.0223721,35.3254819 C82.392153,36.7235307 83.9263281,37.8782738 85.6822174,38.6684136 C87.3833514,39.3977624 89.3038914,39.8231567 91.2791867,39.8231567 C93.3073139,39.8231567 95.118215,39.3977624 96.9289878,38.6684136 C98.6301218,37.8782738 100.22136,36.7235307 101.538309,35.3254819 C102.907962,33.8667842 103.89561,32.1650649 104.608968,30.2808309 C105.322198,28.3991535 105.651499,26.3934797 105.651499,24.2660821 C105.651499,22.0172447 105.322326,19.95078 104.608968,18.0691026 C103.950365,16.1850106 102.962717,14.5439402 101.593065,13.0852425 C100.275988,11.6265448 98.6847489,10.5324506 96.9288596,9.74231083 C95.1729703,8.95217109 93.3074421,8.58770972 91.2791867,8.58770972 L91.2791867,8.58770972 Z M91.2791867,18.5555719 C92.6488394,18.5555719 93.7462541,19.0417571 94.5693793,20.1334368 C95.3925046,21.1665981 95.8314448,22.503856 95.8314448,24.2663662 C95.8314448,25.9074365 95.3925046,27.3053433 94.5693793,28.2777137 C93.7462541,29.3110171 92.6487111,29.7972023 91.2791867,29.7972023 C89.9074823,29.7972023 88.8648229,29.3110171 88.0416977,28.2777137 C87.1636889,27.3053433 86.7796322,25.9074365 86.7796322,24.2663662 C86.7796322,22.503856 87.1636889,21.1665981 88.0416977,20.1334368 C88.8648229,19.0417571 89.9074823,18.5555719 91.2791867,18.5555719 L91.2791867,18.5555719 Z" id="path2596" fill="#F2EBEB"></path>
                                <path d="M72.514907,30.6457184 C72.7344413,29.2503682 72.8440802,27.487716 72.8440802,25.3604604 L72.8440802,9.25626765 L63.1930365,9.25626765 L63.1930365,25.4819002 C63.1930365,27.3053433 63.0262059,28.5816683 62.5894456,29.371808 C62.1503771,30.1011569 61.4919025,30.4634877 60.5042549,30.4634877 C59.516479,30.4634877 58.8580045,30.1011569 58.418936,29.371808 C58.0348793,28.7032501 57.815345,27.3661342 57.815345,25.4819002 L57.815345,9.25626765 L48.214825,9.25626765 L48.214825,25.3603184 C48.1599414,27.6090138 48.3245921,29.3108751 48.5439981,30.6455763 C48.7635324,32.0434831 49.2026009,33.1375774 49.6962965,34.0492989 C50.7938395,35.9333909 52.275311,37.3312977 54.1389157,38.3038102 C55.9496886,39.3369715 58.0897628,39.8231567 60.5042549,39.8231567 C62.9186187,39.8231567 65.0015012,39.3369715 66.8672858,38.3038102 C68.7329423,37.3312977 70.214542,35.9333909 71.2570732,34.0492989 C71.8060371,33.1377194 72.2427974,31.9828342 72.514907,30.6457184 L72.514907,30.6457184 Z" id="path2598" fill="#F2EBEB"></path>
                                <path d="M119.367517,9.25626765 L109.712113,9.25626765 L109.712113,39.033159 L128.746451,39.033159 L128.746451,29.371808 L119.367517,29.371808 L119.367517,9.25626765 L119.367517,9.25626765 Z" id="path2600" fill="#F2EBEB"></path>
                                <path d="M34.8282368,8.52706085 C32.2514023,5.06751856 28.9063261,2.81612452 24.7909565,1.9653359 C20.7326505,1.11440525 16.8914422,1.78537778 13.2697683,3.97356633 C11.4062918,5.12575284 9.81492495,6.58445052 8.55285947,8.28389723 C7.23578221,10.0465494 6.24813455,12.0522232 5.58978826,14.3010606 C4.93118551,16.610689 4.76666305,19.0417571 4.9861973,21.4097617 C5.5349047,19.8902731 6.35790167,18.494781 7.34567756,17.1576651 C8.77239372,15.2734311 10.528283,13.8756663 12.5015266,12.842363 C14.4768219,11.8698505 16.6170244,11.3228744 18.8667376,11.2620835 C21.1165789,11.2620835 23.3093568,11.7482687 25.3396639,12.7207812 C27.4796099,13.6932936 29.3453946,15.1519913 30.9366332,17.0968742 C31.5402241,17.7655741 32.0341762,18.5555719 32.5235119,19.343297 C33.2390499,19.343297 33.950228,19.4040879 34.5561272,19.5864606 C36.1453141,20.0726458 37.4094313,20.9843674 38.3972072,22.3214833 L38.4497825,21.4705526 C38.6166132,19.10269 38.3972072,16.8538526 37.791308,14.665664 C37.1900253,12.4776175 36.2022494,10.4111528 34.8282368,8.52706085 L34.8282368,8.52706085 Z" id="path2602" fill="#444141"></path>
                                <path d="M4.5471288,30.4049693 C4.82154662,32.2258558 5.31537045,33.988366 6.13849565,35.5687875 C6.90660906,37.148925 7.94926852,38.6077647 9.26621755,39.8840896 L9.92482031,40.4917146 C12.1723535,42.1911613 14.5867173,43.4066954 17.2207436,44.0146045 C18.9218776,44.3792079 20.6227551,44.257626 22.2669538,43.8298171 C24.0228431,43.4066954 25.6689653,42.6141411 27.2054486,41.4618125 C25.7787324,41.0994817 24.5166669,40.248693 23.5290193,38.9723681 L23.1449626,38.4860408 C21.0619518,38.7292045 18.9767611,38.6684136 16.8915705,38.1822283 C14.2576724,37.5136704 11.9529475,36.2979943 9.81505318,34.596133 C7.78474606,32.8944138 6.08361209,30.7062252 4.82167485,28.1559899 L4.49250171,27.4266411 C4.43748991,28.3992956 4.43748991,29.4300423 4.5471288,30.4049693 L4.5471288,30.4049693 Z" id="path2604" fill="#444141"></path>
                                <path d="M24.0775984,15.0912004 C22.1569302,14.1794788 20.0740477,13.7540845 17.9339735,13.7540845 C15.8487828,13.8148754 13.8733592,14.3010606 12.0625864,15.2735731 C10.2539934,16.1852947 8.6626266,17.5224105 7.3458058,19.2241298 C6.4130417,20.4980402 5.64467182,21.896089 5.15084799,23.3547866 C5.53503293,25.1780877 6.13862389,26.879949 7.01663265,28.5818103 C8.27869813,30.9496729 9.92494854,32.9554887 11.9529475,34.5356262 C13.928371,36.1159057 16.1780842,37.149067 18.5925762,37.7569761 C20.0741759,38.0609306 21.610531,38.1825124 23.1448343,38.1215795 C22.5411151,37.0276272 22.1570584,35.8727421 21.992536,34.5356262 C21.7730017,33.1985103 21.8300652,31.8613945 22.0474195,30.4051114 C22.3218373,28.6426012 22.9254283,27.0013888 23.7485535,25.4820422 C24.6265623,23.9625537 25.7787324,22.5646469 27.150565,21.4705526 C28.0285738,20.7412038 28.9613379,20.1942277 29.8942302,19.7688334 L29.4002781,19.1610663 C27.8637948,17.4006867 26.1079055,16.0027799 24.0775984,15.0912004 L24.0775984,15.0912004 Z" id="path2606" fill="#444141"></path>
                                <path d="M38.7263803,25.4819002 L38.2303765,24.5701786 C37.5191984,27.3053433 36.2022494,29.7339968 34.4989354,31.9220433 C34.1169305,33.7454864 33.4585842,35.3865568 32.5805754,36.9060454 C31.7048748,38.425392 30.5525765,39.7625078 29.2354992,40.9125638 C30.1682633,40.9781839 31.1012839,40.790982 32.034048,40.4310658 C32.9097485,40.0664624 33.7306938,39.5194862 34.555999,38.7901374 C35.653542,37.6352522 36.6938932,36.2981364 37.5717738,34.9002296 L37.7386044,34.6569239 C38.1206094,33.7453444 38.5068461,32.8336229 38.7790839,31.9826922 C39.0555535,31.0711127 39.2180242,30.1593911 39.2750877,29.3108751 C39.3276631,28.3991535 39.3276631,27.6090138 39.1653206,26.818874 C39.0556817,26.3326888 38.888851,25.9072945 38.7263803,25.4819002 L38.7263803,25.4819002 Z" id="path2608" fill="#444141"></path>
                                <path d="M2.62671705,14.7872459 C1.91771887,16.9752924 1.52917403,19.2825061 1.42171509,21.7743651 C1.36901148,24.995573 1.91771887,28.095341 3.01090198,31.0104638 C3.55960938,32.4083706 4.21808389,33.7454864 5.0412091,35.0218114 C5.80932251,36.2374875 6.68733128,37.3920886 7.67510717,38.425392 C5.53516116,35.8119511 4.27296746,32.772974 3.88891075,29.371808 C3.77927186,28.2169228 3.77927186,27.1229706 3.83402719,25.9682275 C3.12066911,23.7800389 2.73648417,21.5919924 2.73648417,19.343155 C2.73648417,17.218314 3.06565731,15.1518493 3.66924827,13.0245937 C4.16320033,11.565896 4.82154662,10.1679892 5.53503293,8.89166425 C4.27283922,10.7149653 3.33994689,12.6599903 2.62671705,14.7872459 L2.62671705,14.7872459 Z" id="path2610" fill="#444141"></path>
                                <path d="M38.1206094,11.0189199 C37.2997924,9.49943128 36.3120165,8.10152451 35.1048346,6.82761414 C34.0072916,5.55370378 32.7430461,4.45975154 31.3206899,3.54561539 C32.5235119,4.45975154 33.6209267,5.55370378 34.6088308,6.76937986 C36.1451858,8.70943357 37.2996642,10.7758983 38.0108423,13.0855266 C38.7263803,15.4558038 39.0555535,17.8870139 38.888851,20.4373913 C38.8361474,21.227531 38.7263803,21.9568799 38.6166132,22.7470196 C38.888851,23.2332048 39.1653206,23.8411139 39.3848548,24.4488809 C39.9335622,26.2113911 40.0433293,28.0956251 39.7668598,29.9773025 C40.592165,27.3662763 41.0311052,24.6312536 40.9740417,21.7746492 C40.8642746,19.8294822 40.5920367,17.8870139 40.096033,16.0635708 C39.6043891,14.3009186 38.9459146,12.5991993 38.1206094,11.0189199 Z" id="path2612" fill="#444141"></path>
                                <path d="M33.6210549,21.835156 C34.1697623,23.111481 34.4990637,24.5095298 34.6657661,25.9072945 C34.8282368,27.3053433 34.8853003,28.6424592 34.7755332,29.9770184 L34.555999,31.3141343 C36.2021211,29.1894353 37.2996642,26.8190161 37.9580104,24.0839934 C37.5716455,23.6584571 37.189897,23.2330628 36.7508285,22.8683173 C35.872948,22.1999015 34.8282368,21.835156 33.6210549,21.835156 L33.6210549,21.835156 Z" id="path2614" fill="#444141"></path>
                                <path d="M30.3330422,37.8784158 C30.9915167,36.8453966 31.5402241,35.6905114 31.9242808,34.5356262 C29.7294513,36.2982784 27.3150874,37.5139545 24.6811894,38.1215795 C25.0652461,38.7902794 25.5591981,39.3372556 26.1079055,39.7626499 C26.6566129,40.1881862 27.2602039,40.4919987 27.973562,40.7353044 C28.8514425,39.8842317 29.6745677,38.9117192 30.3330422,37.8784158 L30.3330422,37.8784158 Z" id="path2616" fill="#444141"></path>
                                <path d="M19.3058061,44.3793499 L21.6652863,44.5009317 C23.6932852,44.4377262 25.6139535,44.0146045 27.4796099,43.3436319 C29.2354992,42.6776306 30.9366332,41.7634945 32.413873,40.6134385 C31.4854688,41.0996237 30.4978211,41.4619545 29.4551617,41.5203309 C29.1259885,41.5833943 28.7419318,41.5833943 28.3576187,41.5833943 C25.668837,43.5284192 22.6508823,44.4377262 19.3058061,44.3793499 L19.3058061,44.3793499 Z" id="path2618" fill="#444141"></path>
                                <path d="M30.8269943,22.3214833 C29.5648006,22.7470196 28.467514,23.4763684 27.4248546,24.4488809 C26.3273116,25.4820422 25.3945475,26.7585092 24.6811894,28.2170649 C24.0775984,29.6759046 23.6934135,31.0713968 23.5836464,32.5299524 C23.4189957,33.9278592 23.5836464,35.2041841 23.9128195,36.4198602 C24.0774702,36.8453966 24.1872373,37.2098579 24.4067716,37.5747454 C25.7784759,37.3923727 27.0406696,36.9669784 28.3027351,36.3590693 C29.6198124,35.8119511 30.8269943,35.0219534 31.9749327,34.049441 L32.0845716,33.988508 C32.3084658,33.0769285 32.4709365,32.165207 32.5805754,31.2534854 C32.6904708,29.7341389 32.6334072,28.2777137 32.3611694,26.7583672 C32.0341762,25.1780877 31.5403524,23.71939 30.8269943,22.3214833 Z" id="path2620" fill="#444141"></path>
                            </g>
                        </g>
                    </g>
                </g>
            </g>
        </g>
    </g>
</svg>