<?xml version="1.0" encoding="UTF-8" standalone="no"?>
<svg width="125px" height="56px" viewBox="0 0 125 56" version="1.1" xmlns="http://www.w3.org/2000/svg" xmlns:xlink="http://www.w3.org/1999/xlink" xmlns:sketch="http://www.bohemiancoding.com/sketch/ns">
    <!-- Generator: Sketch 3.4.4 (17249) - http://www.bohemiancoding.com/sketch -->
    <title>EDUK</title>
    <desc>Created with Sketch.</desc>
    <defs></defs>
    <g id="landing" stroke="none" stroke-width="1" fill="none" fill-rule="evenodd" sketch:type="MSPage">
        <g id="landing_page" sketch:type="MSArtboardGroup" transform="translate(-539.000000, -2657.000000)">
            <g id="portfolio" sketch:type="MSLayerGroup" transform="translate(-1.000000, 1536.000000)">
                <g id="brands" transform="translate(1.000000, 969.000000)" sketch:type="MSShapeGroup">
                    <g id="brand-logos" transform="translate(70.000000, 152.392638)">
                        <g id="EDUK" transform="translate(469.000000, 0.000000)">
                            <path d="M19.113776,28.016296 L19.113776,25.5005752 C19.113776,18.885161 16.0049089,14.5991181 9.87119792,14.5991181 C3.86352214,14.5991181 0.544596354,18.8385736 0.544596354,25.5005752 L0.544596354,29.6934433 C0.544596354,38.358704 5.24990885,40.8744248 10.0812565,40.8744248 C12.8960417,40.8744248 15.2066862,40.5949003 17.6013542,40.0824387 C18.2735417,39.9426764 18.4415885,39.6165644 18.4415885,39.0109279 L18.4415885,37.4269555 C18.4415885,36.9610813 18.1054948,36.7747316 17.769401,36.7747316 L17.5593424,36.7747316 C15.6268034,37.1008436 12.5179362,37.2871933 10.0812565,37.2871933 C6.21617839,37.2871933 4.2416276,35.2373466 4.2416276,29.6934433 L4.2416276,29.0412193 L18.3155534,29.0412193 C18.819694,29.0412193 19.113776,28.6219325 19.113776,28.016296 L19.113776,28.016296 Z M15.3747331,25.919862 L4.2416276,25.919862 L4.2416276,25.5005752 C4.2416276,20.4691334 6.2581901,18.1863497 9.87119792,18.1863497 C13.5682292,18.1863497 15.3747331,20.2361963 15.3747331,25.5005752 L15.3747331,25.919862 Z M41.1699284,39.0109279 L41.1699284,6.3997316 C41.1699284,5.88726994 40.8338346,5.51457055 40.4137174,5.51457055 L38.2711198,5.51457055 C37.8089909,5.51457055 37.4728971,5.93385736 37.4728971,6.3997316 L37.4728971,15.0649923 C35.8344401,14.7388804 33.8598893,14.5991181 32.557526,14.5991181 C26.4238151,14.5991181 23.3989714,18.6988113 23.3989714,26.0130368 L23.3989714,29.3673313 C23.3989714,36.3554448 26.2977799,40.8744248 32.557526,40.8744248 C35.1202409,40.8744248 37.6829557,40.6414877 40.2876823,40.0824387 C41.0438932,39.9426764 41.1699284,39.6165644 41.1699284,39.0109279 L41.1699284,39.0109279 Z M37.4728971,37.0076687 C36.0444987,37.147431 33.9859245,37.2871933 32.557526,37.2871933 C28.3983659,37.2871933 27.0960026,34.4453604 27.0960026,29.3673313 L27.0960026,26.0130368 C27.0960026,21.0281825 28.4403776,18.1863497 32.557526,18.1863497 C33.901901,18.1863497 36.0865104,18.2329371 37.4728971,18.5124617 L37.4728971,37.0076687 Z M64.5704557,39.6165644 L64.5704557,15.8569785 C64.5704557,15.3445169 64.1923503,14.9252301 63.7722331,14.9252301 L61.7136589,14.9252301 C61.2515299,14.9252301 60.8734245,15.3911043 60.8734245,15.8569785 L60.8734245,35.5168712 C58.9408854,36.5883819 56.9663346,37.3337807 55.2018424,37.3337807 C52.0089518,37.3337807 50.5805534,35.8895706 50.5805534,31.1842408 L50.5805534,15.8569785 C50.5805534,15.3445169 50.2024479,14.9252301 49.740319,14.9252301 L47.7237565,14.9252301 C47.2616276,14.9252301 46.8835221,15.3445169 46.8835221,15.8569785 L46.8835221,31.1842408 C46.8835221,37.3803681 49.1521549,40.8744248 54.1935612,40.8744248 C56.6722526,40.8744248 58.5627799,40.1756135 60.8734245,38.7314034 L60.8734245,39.6165644 C60.8734245,40.1290261 61.2095182,40.5483129 61.6716471,40.5483129 L63.7722331,40.5483129 C64.234362,40.5483129 64.5704557,40.1290261 64.5704557,39.6165644 L64.5704557,39.6165644 Z" id="edu" stroke="#CAC4C4" fill="#F2EBEB"></path>
                            <g id="Rectangle-81-+-K" transform="translate(74.687500, 0.000000)">
                                <rect id="Rectangle-81" fill="#CAC4C4" x="0" y="0" width="49.7916667" height="55.2147239"></rect>
                                <path d="M35.3645313,44.396089 C35.3645313,44.2097393 35.2805078,43.9768021 35.1544727,43.8370399 L22.5089453,27.0655675 L35.1544727,11.2258436 C35.2805078,11.0860813 35.3225195,10.8997316 35.3225195,10.7599693 C35.3225195,10.4804448 35.1544727,10.2475077 34.7343555,10.2475077 L31.7095117,10.2475077 C31.2893945,10.2475077 31.1213477,10.3872699 30.8692773,10.6667945 L18.7699023,26.1804064 L18.7699023,11.1326687 C18.7699023,10.6202071 18.3917969,10.2475077 17.9716797,10.2475077 L15.7450586,10.2475077 C15.2829297,10.2475077 14.9468359,10.6667945 14.9468359,11.1326687 L14.9468359,43.9302147 C14.9468359,44.4426764 15.2829297,44.8619632 15.7030469,44.8619632 L18.0136914,44.8619632 C18.4758203,44.8619632 18.7699023,44.396089 18.7699023,43.9302147 L18.7699023,28.4166028 L30.617207,44.396089 C30.8692773,44.7222009 31.1633594,44.8619632 31.5414648,44.8619632 L34.8183789,44.8619632 C35.1964844,44.8619632 35.3645313,44.6290261 35.3645313,44.396089 L35.3645313,44.396089 Z" id="K" stroke="#444141" stroke-width="3" fill="#444141"></path>
                            </g>
                        </g>
                    </g>
                </g>
            </g>
        </g>
    </g>
</svg>